<mxfile host="app.diagrams.net" modified="2024-03-21T02:59:18.976Z" agent="Mozilla/5.0 (Windows NT 10.0; Win64; x64) AppleWebKit/537.36 (KHTML, like Gecko) Chrome/122.0.0.0 Safari/537.36" etag="r9irDjmVk7GTN157yhn-" version="24.0.6" type="github">
  <diagram name="Página-1" id="5RVed3y4hSYuZmyaZZXw">
    <mxGraphModel dx="1075" dy="412" grid="1" gridSize="10" guides="1" tooltips="1" connect="1" arrows="1" fold="1" page="1" pageScale="1" pageWidth="827" pageHeight="1169" math="0" shadow="0">
      <root>
        <mxCell id="0" />
        <mxCell id="1" parent="0" />
        <mxCell id="QjswOWy8ObnYDPO3Suas-1" value="Usuario" style="swimlane;fontStyle=1;align=center;verticalAlign=top;childLayout=stackLayout;horizontal=1;startSize=26;horizontalStack=0;resizeParent=1;resizeParentMax=0;resizeLast=0;collapsible=1;marginBottom=0;whiteSpace=wrap;html=1;" parent="1" vertex="1">
          <mxGeometry x="20" y="120" width="160" height="212" as="geometry">
            <mxRectangle x="40" y="120" width="80" height="30" as="alternateBounds" />
          </mxGeometry>
        </mxCell>
        <mxCell id="QjswOWy8ObnYDPO3Suas-2" value="+ nome: string&lt;div&gt;+ senha: string&lt;div&gt;+ email: string&lt;/div&gt;&lt;div&gt;+ pontuação: int&lt;/div&gt;&lt;div&gt;+ tipo: string&lt;/div&gt;&lt;div&gt;&lt;br&gt;&lt;div&gt;&lt;br&gt;&lt;/div&gt;&lt;/div&gt;&lt;/div&gt;" style="text;strokeColor=none;fillColor=none;align=left;verticalAlign=top;spacingLeft=4;spacingRight=4;overflow=hidden;rotatable=0;points=[[0,0.5],[1,0.5]];portConstraint=eastwest;whiteSpace=wrap;html=1;" parent="QjswOWy8ObnYDPO3Suas-1" vertex="1">
          <mxGeometry y="26" width="160" height="74" as="geometry" />
        </mxCell>
        <mxCell id="QjswOWy8ObnYDPO3Suas-3" value="" style="line;strokeWidth=1;fillColor=none;align=left;verticalAlign=middle;spacingTop=-1;spacingLeft=3;spacingRight=3;rotatable=0;labelPosition=right;points=[];portConstraint=eastwest;strokeColor=inherit;" parent="QjswOWy8ObnYDPO3Suas-1" vertex="1">
          <mxGeometry y="100" width="160" height="30" as="geometry" />
        </mxCell>
        <mxCell id="QjswOWy8ObnYDPO3Suas-4" value="&lt;div&gt;&lt;div&gt;+ validarSenha():&lt;/div&gt;&lt;/div&gt;" style="text;strokeColor=none;fillColor=none;align=left;verticalAlign=top;spacingLeft=4;spacingRight=4;overflow=hidden;rotatable=0;points=[[0,0.5],[1,0.5]];portConstraint=eastwest;whiteSpace=wrap;html=1;" parent="QjswOWy8ObnYDPO3Suas-1" vertex="1">
          <mxGeometry y="130" width="160" height="30" as="geometry" />
        </mxCell>
        <mxCell id="E188drXFkJm3DrPOopE5-13" value="+ CriarUsuário(): " style="text;align=left;verticalAlign=top;spacingLeft=4;spacingRight=4;overflow=hidden;rotatable=0;points=[[0,0.5],[1,0.5]];portConstraint=eastwest;" vertex="1" parent="QjswOWy8ObnYDPO3Suas-1">
          <mxGeometry y="160" width="160" height="26" as="geometry" />
        </mxCell>
        <mxCell id="E188drXFkJm3DrPOopE5-12" value="+ DeletarUsuário(): " style="text;align=left;verticalAlign=top;spacingLeft=4;spacingRight=4;overflow=hidden;rotatable=0;points=[[0,0.5],[1,0.5]];portConstraint=eastwest;" vertex="1" parent="QjswOWy8ObnYDPO3Suas-1">
          <mxGeometry y="186" width="160" height="26" as="geometry" />
        </mxCell>
        <mxCell id="QjswOWy8ObnYDPO3Suas-5" value="Denuncia" style="swimlane;fontStyle=1;align=center;verticalAlign=top;childLayout=stackLayout;horizontal=1;startSize=26;horizontalStack=0;resizeParent=1;resizeParentMax=0;resizeLast=0;collapsible=1;marginBottom=0;whiteSpace=wrap;html=1;" parent="1" vertex="1">
          <mxGeometry x="607" y="120" width="200" height="294" as="geometry" />
        </mxCell>
        <mxCell id="QjswOWy8ObnYDPO3Suas-6" value="+ titulo: string&lt;div&gt;+ descricao: string&lt;/div&gt;&lt;div&gt;+ categoria: string&lt;/div&gt;&lt;div&gt;+ local: string&lt;br&gt;+ latitude: string&lt;/div&gt;&lt;div&gt;+ longitude: string&lt;/div&gt;&lt;div&gt;+ foto: string&lt;/div&gt;&lt;div&gt;&lt;br&gt;&lt;div&gt;&lt;br&gt;&lt;div&gt;&lt;br&gt;&lt;/div&gt;&lt;/div&gt;&lt;/div&gt;" style="text;strokeColor=none;fillColor=none;align=left;verticalAlign=top;spacingLeft=4;spacingRight=4;overflow=hidden;rotatable=0;points=[[0,0.5],[1,0.5]];portConstraint=eastwest;whiteSpace=wrap;html=1;" parent="QjswOWy8ObnYDPO3Suas-5" vertex="1">
          <mxGeometry y="26" width="200" height="104" as="geometry" />
        </mxCell>
        <mxCell id="QjswOWy8ObnYDPO3Suas-7" value="" style="line;strokeWidth=1;fillColor=none;align=left;verticalAlign=middle;spacingTop=-1;spacingLeft=3;spacingRight=3;rotatable=0;labelPosition=right;points=[];portConstraint=eastwest;strokeColor=inherit;" parent="QjswOWy8ObnYDPO3Suas-5" vertex="1">
          <mxGeometry y="130" width="200" height="30" as="geometry" />
        </mxCell>
        <mxCell id="QjswOWy8ObnYDPO3Suas-8" value="+ validarDuplicidade(): bool" style="text;strokeColor=none;fillColor=none;align=left;verticalAlign=top;spacingLeft=4;spacingRight=4;overflow=hidden;rotatable=0;points=[[0,0.5],[1,0.5]];portConstraint=eastwest;whiteSpace=wrap;html=1;" parent="QjswOWy8ObnYDPO3Suas-5" vertex="1">
          <mxGeometry y="160" width="200" height="30" as="geometry" />
        </mxCell>
        <mxCell id="E188drXFkJm3DrPOopE5-14" value="+ CriarDenuncia(): " style="text;align=left;verticalAlign=top;spacingLeft=4;spacingRight=4;overflow=hidden;rotatable=0;points=[[0,0.5],[1,0.5]];portConstraint=eastwest;" vertex="1" parent="QjswOWy8ObnYDPO3Suas-5">
          <mxGeometry y="190" width="200" height="26" as="geometry" />
        </mxCell>
        <mxCell id="E188drXFkJm3DrPOopE5-15" value="+ DeletarDenuncia(): " style="text;align=left;verticalAlign=top;spacingLeft=4;spacingRight=4;overflow=hidden;rotatable=0;points=[[0,0.5],[1,0.5]];portConstraint=eastwest;" vertex="1" parent="QjswOWy8ObnYDPO3Suas-5">
          <mxGeometry y="216" width="200" height="26" as="geometry" />
        </mxCell>
        <mxCell id="E188drXFkJm3DrPOopE5-16" value="+ AlterarDenuncia(): " style="text;align=left;verticalAlign=top;spacingLeft=4;spacingRight=4;overflow=hidden;rotatable=0;points=[[0,0.5],[1,0.5]];portConstraint=eastwest;" vertex="1" parent="QjswOWy8ObnYDPO3Suas-5">
          <mxGeometry y="242" width="200" height="26" as="geometry" />
        </mxCell>
        <mxCell id="E188drXFkJm3DrPOopE5-17" value="+ GerarRelatório(): " style="text;align=left;verticalAlign=top;spacingLeft=4;spacingRight=4;overflow=hidden;rotatable=0;points=[[0,0.5],[1,0.5]];portConstraint=eastwest;" vertex="1" parent="QjswOWy8ObnYDPO3Suas-5">
          <mxGeometry y="268" width="200" height="26" as="geometry" />
        </mxCell>
        <mxCell id="QjswOWy8ObnYDPO3Suas-10" value="Comentario" style="swimlane;fontStyle=1;align=center;verticalAlign=top;childLayout=stackLayout;horizontal=1;startSize=26;horizontalStack=0;resizeParent=1;resizeParentMax=0;resizeLast=0;collapsible=1;marginBottom=0;whiteSpace=wrap;html=1;" parent="1" vertex="1">
          <mxGeometry x="328.5" y="70" width="130" height="134" as="geometry" />
        </mxCell>
        <mxCell id="QjswOWy8ObnYDPO3Suas-11" value="+ data: datetime" style="text;strokeColor=none;fillColor=none;align=left;verticalAlign=top;spacingLeft=4;spacingRight=4;overflow=hidden;rotatable=0;points=[[0,0.5],[1,0.5]];portConstraint=eastwest;whiteSpace=wrap;html=1;" parent="QjswOWy8ObnYDPO3Suas-10" vertex="1">
          <mxGeometry y="26" width="130" height="24" as="geometry" />
        </mxCell>
        <mxCell id="E188drXFkJm3DrPOopE5-20" value="+ texto: string" style="text;strokeColor=none;fillColor=none;align=left;verticalAlign=top;spacingLeft=4;spacingRight=4;overflow=hidden;rotatable=0;points=[[0,0.5],[1,0.5]];portConstraint=eastwest;whiteSpace=wrap;html=1;" vertex="1" parent="QjswOWy8ObnYDPO3Suas-10">
          <mxGeometry y="50" width="130" height="24" as="geometry" />
        </mxCell>
        <mxCell id="QjswOWy8ObnYDPO3Suas-12" value="" style="line;strokeWidth=1;fillColor=none;align=left;verticalAlign=middle;spacingTop=-1;spacingLeft=3;spacingRight=3;rotatable=0;labelPosition=right;points=[];portConstraint=eastwest;strokeColor=inherit;" parent="QjswOWy8ObnYDPO3Suas-10" vertex="1">
          <mxGeometry y="74" width="130" height="8" as="geometry" />
        </mxCell>
        <mxCell id="E188drXFkJm3DrPOopE5-21" value="+ CriarComentario():" style="text;align=left;verticalAlign=top;spacingLeft=4;spacingRight=4;overflow=hidden;rotatable=0;points=[[0,0.5],[1,0.5]];portConstraint=eastwest;" vertex="1" parent="QjswOWy8ObnYDPO3Suas-10">
          <mxGeometry y="82" width="130" height="26" as="geometry" />
        </mxCell>
        <mxCell id="E188drXFkJm3DrPOopE5-24" value="+ DeletarComentario(): " style="text;align=left;verticalAlign=top;spacingLeft=4;spacingRight=4;overflow=hidden;rotatable=0;points=[[0,0.5],[1,0.5]];portConstraint=eastwest;" vertex="1" parent="QjswOWy8ObnYDPO3Suas-10">
          <mxGeometry y="108" width="130" height="26" as="geometry" />
        </mxCell>
        <mxCell id="QjswOWy8ObnYDPO3Suas-18" value="1" style="text;html=1;align=center;verticalAlign=middle;whiteSpace=wrap;rounded=0;" parent="1" vertex="1">
          <mxGeometry x="547" y="146" width="60" height="30" as="geometry" />
        </mxCell>
        <mxCell id="QjswOWy8ObnYDPO3Suas-21" value="0..n" style="text;html=1;align=center;verticalAlign=middle;whiteSpace=wrap;rounded=0;" parent="1" vertex="1">
          <mxGeometry x="458.5" y="146" width="60" height="30" as="geometry" />
        </mxCell>
        <mxCell id="QjswOWy8ObnYDPO3Suas-22" value="Curtida" style="swimlane;fontStyle=1;align=center;verticalAlign=top;childLayout=stackLayout;horizontal=1;startSize=26;horizontalStack=0;resizeParent=1;resizeParentMax=0;resizeLast=0;collapsible=1;marginBottom=0;whiteSpace=wrap;html=1;" parent="1" vertex="1">
          <mxGeometry x="328.5" y="230" width="130" height="120" as="geometry" />
        </mxCell>
        <mxCell id="QjswOWy8ObnYDPO3Suas-23" value="+ data: datetime" style="text;strokeColor=none;fillColor=none;align=left;verticalAlign=top;spacingLeft=4;spacingRight=4;overflow=hidden;rotatable=0;points=[[0,0.5],[1,0.5]];portConstraint=eastwest;whiteSpace=wrap;html=1;" parent="QjswOWy8ObnYDPO3Suas-22" vertex="1">
          <mxGeometry y="26" width="130" height="34" as="geometry" />
        </mxCell>
        <mxCell id="QjswOWy8ObnYDPO3Suas-24" value="" style="line;strokeWidth=1;fillColor=none;align=left;verticalAlign=middle;spacingTop=-1;spacingLeft=3;spacingRight=3;rotatable=0;labelPosition=right;points=[];portConstraint=eastwest;strokeColor=inherit;" parent="QjswOWy8ObnYDPO3Suas-22" vertex="1">
          <mxGeometry y="60" width="130" height="8" as="geometry" />
        </mxCell>
        <mxCell id="E188drXFkJm3DrPOopE5-22" value="+ CriarCurtida():" style="text;align=left;verticalAlign=top;spacingLeft=4;spacingRight=4;overflow=hidden;rotatable=0;points=[[0,0.5],[1,0.5]];portConstraint=eastwest;" vertex="1" parent="QjswOWy8ObnYDPO3Suas-22">
          <mxGeometry y="68" width="130" height="26" as="geometry" />
        </mxCell>
        <mxCell id="E188drXFkJm3DrPOopE5-23" value="+ DeletarCurtida(): " style="text;align=left;verticalAlign=top;spacingLeft=4;spacingRight=4;overflow=hidden;rotatable=0;points=[[0,0.5],[1,0.5]];portConstraint=eastwest;" vertex="1" parent="QjswOWy8ObnYDPO3Suas-22">
          <mxGeometry y="94" width="130" height="26" as="geometry" />
        </mxCell>
        <mxCell id="QjswOWy8ObnYDPO3Suas-26" value="1" style="text;html=1;align=center;verticalAlign=middle;whiteSpace=wrap;rounded=0;" parent="1" vertex="1">
          <mxGeometry x="547" y="240" width="60" height="30" as="geometry" />
        </mxCell>
        <mxCell id="QjswOWy8ObnYDPO3Suas-29" value="0..n" style="text;html=1;align=center;verticalAlign=middle;whiteSpace=wrap;rounded=0;" parent="1" vertex="1">
          <mxGeometry x="268.5" y="152" width="60" height="30" as="geometry" />
        </mxCell>
        <mxCell id="QjswOWy8ObnYDPO3Suas-30" value="1" style="text;html=1;align=center;verticalAlign=middle;whiteSpace=wrap;rounded=0;" parent="1" vertex="1">
          <mxGeometry x="180" y="152" width="60" height="30" as="geometry" />
        </mxCell>
        <mxCell id="QjswOWy8ObnYDPO3Suas-31" value="0..n" style="text;html=1;align=center;verticalAlign=middle;whiteSpace=wrap;rounded=0;" parent="1" vertex="1">
          <mxGeometry x="458.5" y="240" width="60" height="30" as="geometry" />
        </mxCell>
        <mxCell id="QjswOWy8ObnYDPO3Suas-33" value="0..n" style="text;html=1;align=center;verticalAlign=middle;whiteSpace=wrap;rounded=0;" parent="1" vertex="1">
          <mxGeometry x="268.5" y="220" width="60" height="30" as="geometry" />
        </mxCell>
        <mxCell id="QjswOWy8ObnYDPO3Suas-34" value="1" style="text;html=1;align=center;verticalAlign=middle;whiteSpace=wrap;rounded=0;" parent="1" vertex="1">
          <mxGeometry x="190" y="220" width="60" height="30" as="geometry" />
        </mxCell>
        <mxCell id="QjswOWy8ObnYDPO3Suas-36" value="0..n" style="text;html=1;align=center;verticalAlign=middle;whiteSpace=wrap;rounded=0;" parent="1" vertex="1">
          <mxGeometry x="660" y="70" width="60" height="30" as="geometry" />
        </mxCell>
        <mxCell id="QjswOWy8ObnYDPO3Suas-37" value="1" style="text;html=1;align=center;verticalAlign=middle;whiteSpace=wrap;rounded=0;" parent="1" vertex="1">
          <mxGeometry x="60" y="70" width="60" height="30" as="geometry" />
        </mxCell>
        <mxCell id="E188drXFkJm3DrPOopE5-1" value="" style="endArrow=open;endFill=1;endSize=12;html=1;rounded=0;entryX=-0.006;entryY=0.107;entryDx=0;entryDy=0;exitX=0;exitY=0.5;exitDx=0;exitDy=0;entryPerimeter=0;" edge="1" parent="1">
          <mxGeometry width="160" relative="1" as="geometry">
            <mxPoint x="458.5" y="265.36" as="sourcePoint" />
            <mxPoint x="605.8" y="264.64" as="targetPoint" />
          </mxGeometry>
        </mxCell>
        <mxCell id="E188drXFkJm3DrPOopE5-3" value="" style="endArrow=open;endFill=1;endSize=12;html=1;rounded=0;entryX=1;entryY=1;entryDx=0;entryDy=0;exitX=0;exitY=1;exitDx=0;exitDy=0;" edge="1" parent="1" source="QjswOWy8ObnYDPO3Suas-21" target="QjswOWy8ObnYDPO3Suas-18">
          <mxGeometry width="160" relative="1" as="geometry">
            <mxPoint x="469" y="274" as="sourcePoint" />
            <mxPoint x="617" y="265" as="targetPoint" />
          </mxGeometry>
        </mxCell>
        <mxCell id="E188drXFkJm3DrPOopE5-5" value="" style="endArrow=open;endFill=1;endSize=12;html=1;rounded=0;entryX=0.995;entryY=0.106;entryDx=0;entryDy=0;exitX=-0.005;exitY=-0.106;exitDx=0;exitDy=0;exitPerimeter=0;entryPerimeter=0;" edge="1" parent="1" source="QjswOWy8ObnYDPO3Suas-23" target="QjswOWy8ObnYDPO3Suas-4">
          <mxGeometry width="160" relative="1" as="geometry">
            <mxPoint x="479" y="284" as="sourcePoint" />
            <mxPoint x="627" y="275" as="targetPoint" />
          </mxGeometry>
        </mxCell>
        <mxCell id="E188drXFkJm3DrPOopE5-6" value="" style="endArrow=open;endFill=1;endSize=12;html=1;rounded=0;entryX=1;entryY=0.5;entryDx=0;entryDy=0;exitX=1;exitY=1;exitDx=0;exitDy=0;" edge="1" parent="1" source="QjswOWy8ObnYDPO3Suas-29" target="QjswOWy8ObnYDPO3Suas-2">
          <mxGeometry width="160" relative="1" as="geometry">
            <mxPoint x="320" y="210" as="sourcePoint" />
            <mxPoint x="193" y="262" as="targetPoint" />
            <Array as="points" />
          </mxGeometry>
        </mxCell>
        <mxCell id="E188drXFkJm3DrPOopE5-10" value="" style="endArrow=open;endFill=1;endSize=12;html=1;rounded=0;entryX=0.5;entryY=0;entryDx=0;entryDy=0;exitX=0.5;exitY=0;exitDx=0;exitDy=0;" edge="1" parent="1" source="QjswOWy8ObnYDPO3Suas-1" target="QjswOWy8ObnYDPO3Suas-5">
          <mxGeometry width="160" relative="1" as="geometry">
            <mxPoint x="320" y="40" as="sourcePoint" />
            <mxPoint x="468" y="40" as="targetPoint" />
            <Array as="points">
              <mxPoint x="100" y="40" />
              <mxPoint x="707" y="40" />
            </Array>
          </mxGeometry>
        </mxCell>
        <mxCell id="E188drXFkJm3DrPOopE5-18" value="+GerarRelatório(): Void" style="text;align=left;verticalAlign=top;spacingLeft=4;spacingRight=4;overflow=hidden;rotatable=0;points=[[0,0.5],[1,0.5]];portConstraint=eastwest;" vertex="1" parent="1">
          <mxGeometry x="450" y="566" width="160" height="26" as="geometry" />
        </mxCell>
      </root>
    </mxGraphModel>
  </diagram>
</mxfile>
